<?xml version="1.0" encoding="UTF-8" standalone="no"?>
<!-- Created with Inkscape (http://www.inkscape.org/) -->

<svg
   width="121.2035mm"
   height="301.64514mm"
   viewBox="0 0 121.2035 301.64515"
   version="1.1"
   id="svg5"
   sodipodi:docname="double_pendulum.svg"
   inkscape:version="1.2.1 (9c6d41e, 2022-07-14)"
   inkscape:export-filename="final_double_pendulum.svg"
   inkscape:export-xdpi="96"
   inkscape:export-ydpi="96"
   xmlns:inkscape="http://www.inkscape.org/namespaces/inkscape"
   xmlns:sodipodi="http://sodipodi.sourceforge.net/DTD/sodipodi-0.dtd"
   xmlns="http://www.w3.org/2000/svg"
   xmlns:svg="http://www.w3.org/2000/svg">
  <sodipodi:namedview
     id="namedview7"
     pagecolor="#afafaf"
     bordercolor="#ffffff"
     borderopacity="1"
     inkscape:showpageshadow="0"
     inkscape:pageopacity="0"
     inkscape:pagecheckerboard="false"
     inkscape:deskcolor="#505050"
     inkscape:document-units="mm"
     showgrid="false"
     showguides="false"
     inkscape:zoom="0.47401643"
     inkscape:cx="809.04368"
     inkscape:cy="791.11181"
     inkscape:window-width="1680"
     inkscape:window-height="1022"
     inkscape:window-x="0"
     inkscape:window-y="0"
     inkscape:window-maximized="0"
     inkscape:current-layer="layer1" />
  <defs
     id="defs2" />
  <g
     inkscape:label="Layer 1"
     inkscape:groupmode="layer"
     id="layer1"
     transform="translate(193.53297)">
    <g
       id="g3641">
      <path
         id="path3573"
         style="fill:none;stroke:#000000;stroke-width:0.596344;stroke-dasharray:none"
         d="m -97.729476,0.29817301 c -13.863344,0 -25.101824,11.23848499 -25.101824,25.10182699 0.005,5.097366 1.56245,10.069467 4.46019,14.257528 h -0.0351 c 0,0 8.28838,11.685167 8.28838,48.244083 0,36.558899 -8.28838,48.244079 -8.28838,48.244079 h 0.16123 c -2.97508,4.21971 -4.57659,9.25418 -4.58628,14.41721 0,13.86335 11.23847,25.10183 25.101824,25.10183 13.86334,0 25.101823,-11.23849 25.101827,-25.10183 -0.0019,-5.16036 -1.594107,-10.19477 -4.559929,-14.41772 h 0.134359 c 0,0 -8.287866,-11.68491 -8.287866,-48.243569 10e-6,-36.558656 8.287866,-48.243567 8.287866,-48.243567 h -0.03514 C -74.190405,35.469928 -72.632638,30.497536 -72.627649,25.4 -72.62765,11.536658 -83.866132,0.29817301 -97.729476,0.29817301 Z" />
      <circle
         style="fill:none;stroke:#000000;stroke-width:0.711717;stroke-dasharray:none"
         id="path1516-4-0"
         cx="-97.729683"
         cy="25.4"
         r="10.644141" />
      <circle
         style="fill:none;stroke:#000000;stroke-width:0.711717;stroke-dasharray:none"
         id="path1516-9-7-0-8"
         cx="-97.729683"
         cy="150.8"
         r="10.644141" />
    </g>
    <g
       id="g3636">
      <path
         id="path3455"
         style="fill:none;stroke:#000000;stroke-width:0.596344"
         d="m -168.13293,0.29817301 c -13.86333,0 -25.10183,11.23851299 -25.10183,25.10182699 0.01,5.096958 1.57044,10.070295 4.27829,14.363981 0,0 8.0915,11.790665 8.0915,48.349504 0,36.558825 -8.28838,48.244085 -8.28838,48.244085 h 0.52193 c -2.98609,4.22474 -4.59387,9.269 -4.60334,14.44253 0,5.45346 1.74551,10.49585 4.69946,14.61254 1.39919,2.34094 8.01398,15.14745 8.01398,48.22652 0,35.7765 -7.7342,47.84238 -8.23929,48.59238 h -0.0486 c 0,0 0.0323,-0.0454 0.093,-0.14004 0.0607,-0.0946 0.14972,-0.23821 0.26303,-0.43409 0.0567,-0.0979 0.1193,-0.20935 0.18759,-0.33383 0.0389,-0.071 0.0837,-0.15637 0.12609,-0.23616 -3.30543,4.36201 -5.0947,9.68479 -5.0953,15.15773 0,13.86336 11.23847,25.10183 25.10183,25.10183 13.86336,0 25.10183,-11.23847 25.10183,-25.10183 -9.5e-4,-5.46975 -1.78848,-10.7895 -5.09065,-15.14998 0.0409,0.0768 0.0838,0.15981 0.12144,0.22841 0.0683,0.12449 0.13144,0.23538 0.1881,0.33332 0.11332,0.19587 0.20234,0.33947 0.26304,0.43408 0.0607,0.0946 0.093,0.14004 0.093,0.14004 h -0.0486 c -0.50619,-0.75174 -8.23981,-12.81843 -8.23981,-48.59186 0,-33.1083 6.6264,-45.90742 8.0176,-48.23169 2.95174,-4.11577 4.69584,-9.15614 4.69584,-14.60737 -9e-5,-5.20765 -1.61986,-10.28635 -4.63486,-14.53245 h -0.19379 c -0.60979,-0.91561 -8.22844,-13.05458 -8.22844,-48.154165 0,-36.558592 8.28787,-48.243567 8.28787,-48.243567 l 0.29404,-0.211357 c 2.90473,-4.188267 4.46567,-9.161604 4.47518,-14.258561 0,-13.86331 -11.23853,-25.10182147 -25.10183,-25.10182699 z"
         sodipodi:nodetypes="cccsccccsccscsccsccsssccsccccscccsc" />
      <path
         id="path1516-6"
         style="fill:none;stroke:#000000;stroke-width:0.711717"
         d="M -157.48872,25.4 A 10.644141,10.644141 0 0 1 -168.13286,36.044141 10.644141,10.644141 0 0 1 -178.777,25.4 10.644141,10.644141 0 0 1 -168.13286,14.755858 10.644141,10.644141 0 0 1 -157.48872,25.4 Z" />
      <path
         id="path1516-9-6"
         style="fill:none;stroke:#000000;stroke-width:0.711717"
         d="M -157.48872,276.2 A 10.644141,10.644141 0 0 1 -168.13286,286.84414 10.644141,10.644141 0 0 1 -178.777,276.2 10.644141,10.644141 0 0 1 -168.13286,265.55586 10.644141,10.644141 0 0 1 -157.48872,276.2 Z" />
      <path
         id="path1516-9-7-5"
         style="fill:none;stroke:#000000;stroke-width:0.711717"
         d="M -157.48872,150.8 A 10.644141,10.644141 0 0 1 -168.13286,161.44414 10.644141,10.644141 0 0 1 -178.777,150.8 10.644141,10.644141 0 0 1 -168.13286,140.15586 10.644141,10.644141 0 0 1 -157.48872,150.8 Z" />
    </g>
  </g>
</svg>
