999
"DXF R12 Output" (www.mydxf.blogspot.com)
 0 
SECTION
 2 
HEADER
 9 
$ACADVER
 1 
AC1009
 9 
$EXTMIN
 10 
 0 
 20 
 0 
 9 
$EXTMAX
 10 
 8.5 
 20 
 11 
 0 
ENDSEC
 0 
SECTION
 2 
ENTITIES
0
LINE
8
Layer 1
10
0.793749
20
302.108000
11
-0.793749
21
300.520000
0
LINE
8
Layer 1
10
0.000000
20
302.637000
11
0.000000
21
299.991000
0
LINE
8
Layer 1
10
2.116660
20
300.256000
11
1.058330
21
299.197670
0
LINE
8
Layer 1
10
1.587500
20
300.785000
11
0.529170
21
299.726670
0
LINE
8
Layer 1
10
1.058330
20
301.314000
11
0.000000
21
300.255670
0
LINE
8
Layer 1
10
95.637400
20
301.182000
11
93.070680
21
301.052407
0
LINE
8
Layer 1
10
93.070600
20
301.053000
11
90.578230
21
300.672609
0
LINE
8
Layer 1
10
90.578300
20
300.672000
11
88.172710
21
300.053458
0
LINE
8
Layer 1
10
88.172700
20
300.054000
11
85.866590
21
299.209893
0
LINE
8
Layer 1
10
85.866600
20
299.210000
11
83.672410
21
298.152970
0
LINE
8
Layer 1
10
83.672400
20
298.153000
11
81.602570
21
296.895660
0
LINE
8
Layer 1
10
81.602600
20
296.895000
11
79.670350
21
295.449960
0
LINE
8
Layer 1
10
79.670300
20
295.450000
11
77.887540
21
293.829890
0
LINE
8
Layer 1
10
77.887500
20
293.830000
11
76.267460
21
292.047420
0
LINE
8
Layer 1
10
76.267500
20
292.048000
11
74.822350
21
290.115570
0
LINE
8
Layer 1
10
74.822300
20
290.115000
11
73.565000
21
288.045350
0
LINE
8
Layer 1
10
73.565000
20
288.046000
11
72.507990
21
285.851760
0
LINE
8
Layer 1
10
72.508000
20
285.851000
11
71.663980
21
283.544760
0
LINE
8
Layer 1
10
71.664000
20
283.545000
11
71.045405
21
281.139380
0
LINE
8
Layer 1
10
71.045400
20
281.139000
11
70.664930
21
278.646630
0
LINE
8
Layer 1
10
70.665000
20
278.647000
11
70.535619
21
276.080490
0
LINE
8
Layer 1
10
70.535600
20
276.080000
11
70.826906
21
272.290750
0
LINE
8
Layer 1
10
70.826900
20
272.291000
11
71.680709
21
268.610470
0
LINE
8
Layer 1
10
71.680700
20
268.611000
11
73.076900
21
265.101040
0
LINE
8
Layer 1
10
73.076900
20
265.101000
11
74.995660
21
261.823350
0
LINE
8
Layer 1
10
74.960500
20
261.822000
11
75.316629
21
261.248384
0
LINE
8
Layer 1
10
75.316600
20
261.249000
11
76.255605
21
259.425490
0
LINE
8
Layer 1
10
76.255600
20
259.425000
11
77.583010
21
256.196820
0
LINE
8
Layer 1
10
77.583000
20
256.197000
11
79.104620
21
251.409900
0
LINE
8
Layer 1
10
79.104600
20
251.410000
11
80.626480
21
244.908930
0
LINE
8
Layer 1
10
80.626500
20
244.909000
11
81.326587
21
240.967510
0
LINE
8
Layer 1
10
81.326600
20
240.967000
11
81.953926
21
236.539200
0
LINE
8
Layer 1
10
81.953900
20
236.540000
11
82.484124
21
231.606590
0
LINE
8
Layer 1
10
82.484100
20
231.606000
11
82.892616
21
226.147390
0
LINE
8
Layer 1
10
82.892700
20
226.148000
11
83.155960
21
220.145410
0
LINE
8
Layer 1
10
83.155900
20
220.145000
11
83.249033
21
213.578310
0
LINE
8
Layer 1
10
83.249100
20
213.578000
11
83.155967
21
207.011580
0
LINE
8
Layer 1
10
83.155900
20
207.012000
11
82.892904
21
201.009140
0
LINE
8
Layer 1
10
82.892900
20
201.009000
11
82.484119
21
195.550390
0
LINE
8
Layer 1
10
82.484100
20
195.550000
11
81.953876
21
190.616590
0
LINE
8
Layer 1
10
81.953900
20
190.617000
11
81.326574
21
186.189200
0
LINE
8
Layer 1
10
81.326600
20
186.189000
11
80.626513
21
182.247510
0
LINE
8
Layer 1
10
80.626500
20
182.248000
11
79.104880
21
175.747200
0
LINE
8
Layer 1
10
79.104900
20
175.747000
11
77.583020
21
170.959640
0
LINE
8
Layer 1
10
77.583000
20
170.960000
11
76.255590
21
167.731820
0
LINE
8
Layer 1
10
76.255600
20
167.731000
11
75.316860
21
165.907490
0
LINE
8
Layer 1
10
75.316900
20
165.908000
11
74.960771
21
165.334649
0
LINE
8
Layer 1
10
74.995600
20
261.822000
11
74.960500
21
261.822000
0
LINE
8
Layer 1
10
75.121900
20
165.335000
11
73.151550
21
162.027980
0
LINE
8
Layer 1
10
73.151500
20
162.028000
11
71.716670
21
158.480210
0
LINE
8
Layer 1
10
71.716700
20
158.480000
11
70.838020
21
154.754940
0
LINE
8
Layer 1
10
70.838000
20
154.755000
11
70.535582
21
150.917750
0
LINE
8
Layer 1
10
70.535600
20
150.917000
11
70.665246
21
148.350540
0
LINE
8
Layer 1
10
70.665200
20
148.351000
11
71.045406
21
145.858630
0
LINE
8
Layer 1
10
71.045400
20
145.859000
11
71.663995
21
143.453410
0
LINE
8
Layer 1
10
71.664000
20
143.453000
11
72.508284
21
141.146890
0
LINE
8
Layer 1
10
72.508300
20
141.147000
11
73.565310
21
138.952550
0
LINE
8
Layer 1
10
73.565300
20
138.952000
11
74.822600
21
136.882430
0
LINE
8
Layer 1
10
74.822600
20
136.883000
11
76.267490
21
134.950490
0
LINE
8
Layer 1
10
76.267500
20
134.950000
11
77.887810
21
133.167500
0
LINE
8
Layer 1
10
77.887800
20
133.168000
11
79.670300
21
131.547960
0
LINE
8
Layer 1
10
79.670300
20
131.548000
11
81.602810
21
130.102850
0
LINE
8
Layer 1
10
81.602800
20
130.103000
11
83.672370
21
128.845700
0
LINE
8
Layer 1
10
83.672400
20
128.845000
11
85.866590
21
127.787990
0
LINE
8
Layer 1
10
85.866600
20
127.788000
11
88.172970
21
126.943980
0
LINE
8
Layer 1
10
88.172900
20
126.944000
11
90.578490
21
126.325405
0
LINE
8
Layer 1
10
90.578500
20
126.326000
11
93.070870
21
125.945530
0
LINE
8
Layer 1
10
93.070900
20
125.945000
11
95.637360
21
125.815354
0
LINE
8
Layer 1
10
95.637400
20
125.816000
11
98.203860
21
125.945381
0
LINE
8
Layer 1
10
98.203800
20
125.945000
11
100.696170
21
126.325470
0
LINE
8
Layer 1
10
100.696000
20
126.326000
11
103.101590
21
126.944595
0
LINE
8
Layer 1
10
103.102000
20
126.944000
11
105.408370
21
127.788020
0
LINE
8
Layer 1
10
105.408000
20
127.788000
11
107.602190
21
128.845010
0
LINE
8
Layer 1
10
107.602000
20
128.845000
11
109.671570
21
130.102300
0
LINE
8
Layer 1
10
109.672000
20
130.102000
11
111.604510
21
131.547150
0
LINE
8
Layer 1
10
111.604000
20
131.548000
11
113.386500
21
133.168040
0
LINE
8
Layer 1
10
113.387000
20
133.168000
11
115.007040
21
134.950760
0
LINE
8
Layer 1
10
115.007000
20
134.950000
11
116.452150
21
136.882250
0
LINE
8
Layer 1
10
116.452000
20
136.883000
11
117.709300
21
138.952830
0
LINE
8
Layer 1
10
117.709000
20
138.952000
11
118.766010
21
141.146190
0
LINE
8
Layer 1
10
118.766000
20
141.147000
11
119.610284
21
143.453110
0
LINE
8
Layer 1
10
119.611000
20
143.453000
11
120.229330
21
145.858590
0
LINE
8
Layer 1
10
120.229000
20
145.858000
11
120.609470
21
148.350370
0
LINE
8
Layer 1
10
120.609000
20
148.351000
11
120.738646
21
150.917720
0
LINE
8
Layer 1
10
120.739000
20
150.917000
11
120.442932
21
154.752920
0
LINE
8
Layer 1
10
120.443000
20
154.753000
11
119.570670
21
158.477530
0
LINE
8
Layer 1
10
119.570000
20
158.478000
11
118.142050
21
162.026590
0
LINE
8
Layer 1
10
118.142000
20
162.026000
11
116.178530
21
165.334610
0
LINE
8
Layer 1
10
74.960500
20
165.335000
11
75.121900
21
165.335000
0
LINE
8
Layer 1
10
116.314000
20
165.336000
11
115.957871
21
165.909351
0
LINE
8
Layer 1
10
115.958000
20
165.909000
11
115.019260
21
167.732510
0
LINE
8
Layer 1
10
115.019000
20
167.732000
11
113.691590
21
170.960180
0
LINE
8
Layer 1
10
113.691000
20
170.961000
11
112.169380
21
175.748100
0
LINE
8
Layer 1
10
112.170000
20
175.748000
11
110.648380
21
182.248800
0
LINE
8
Layer 1
10
110.648000
20
182.249000
11
109.947913
21
186.190490
0
LINE
8
Layer 1
10
109.948000
20
186.190000
11
109.320674
21
190.617800
0
LINE
8
Layer 1
10
109.321000
20
190.618000
11
108.791040
21
195.551410
0
LINE
8
Layer 1
10
108.791000
20
195.551000
11
108.382219
21
201.009350
0
LINE
8
Layer 1
10
108.382000
20
201.010000
11
108.119004
21
207.012860
0
LINE
8
Layer 1
10
108.119000
20
207.012000
11
108.025867
21
213.578420
0
LINE
8
Layer 1
10
108.026000
20
213.578000
11
108.119133
21
220.144420
0
LINE
8
Layer 1
10
108.119000
20
220.145000
11
108.381996
21
226.147860
0
LINE
8
Layer 1
10
108.382000
20
226.148000
11
108.790781
21
231.606610
0
LINE
8
Layer 1
10
108.791000
20
231.606000
11
109.321224
21
236.539410
0
LINE
8
Layer 1
10
109.321000
20
236.540000
11
109.948062
21
240.967800
0
LINE
8
Layer 1
10
109.948000
20
240.967000
11
110.648087
21
244.908230
0
LINE
8
Layer 1
10
110.648000
20
244.909000
11
112.169620
21
251.409800
0
LINE
8
Layer 1
10
112.170000
20
251.410000
11
113.691620
21
256.197360
0
LINE
8
Layer 1
10
113.691000
20
256.197000
11
115.018410
21
259.424910
0
LINE
8
Layer 1
10
115.019000
20
259.425000
11
115.957740
21
261.248510
0
LINE
8
Layer 1
10
115.957000
20
261.248000
11
116.313129
21
261.821616
0
LINE
8
Layer 1
10
116.179000
20
165.336000
11
116.314000
21
165.336000
0
LINE
8
Layer 1
10
116.279000
20
261.822000
11
118.197760
21
265.099650
0
LINE
8
Layer 1
10
118.198000
20
265.100000
11
119.594200
21
268.610220
0
LINE
8
Layer 1
10
119.594000
20
268.610000
11
120.448074
21
272.290690
0
LINE
8
Layer 1
10
120.448000
20
272.291000
11
120.739570
21
276.080360
0
LINE
8
Layer 1
10
120.739000
20
276.080000
11
120.609619
21
278.646460
0
LINE
8
Layer 1
10
120.609000
20
278.647000
11
120.228530
21
281.139350
0
LINE
8
Layer 1
10
120.229000
20
281.139000
11
119.610405
21
283.544590
0
LINE
8
Layer 1
10
119.610000
20
283.545000
11
118.765980
21
285.851240
0
LINE
8
Layer 1
10
118.766000
20
285.851000
11
117.708990
21
288.045270
0
LINE
8
Layer 1
10
117.709000
20
288.045000
11
116.451700
21
290.114650
0
LINE
8
Layer 1
10
116.452000
20
290.115000
11
115.007110
21
292.047460
0
LINE
8
Layer 1
10
115.007000
20
292.047000
11
113.386960
21
293.829600
0
LINE
8
Layer 1
10
113.387000
20
293.830000
11
111.604240
21
295.450140
0
LINE
8
Layer 1
10
111.604000
20
295.450000
11
109.671750
21
296.895080
0
LINE
8
Layer 1
10
109.672000
20
296.895000
11
107.602430
21
298.152380
0
LINE
8
Layer 1
10
107.602000
20
298.153000
11
105.407550
21
299.210060
0
LINE
8
Layer 1
10
105.408000
20
299.210000
11
103.101890
21
300.054126
0
LINE
8
Layer 1
10
103.102000
20
300.054000
11
100.696410
21
300.672569
0
LINE
8
Layer 1
10
100.696000
20
300.672000
11
98.203630
21
301.052391
0
LINE
8
Layer 1
10
98.203800
20
301.053000
11
95.637340
21
301.182619
0
LINE
8
Layer 1
10
116.314000
20
261.822000
11
116.279000
21
261.822000
0
LINE
8
Layer 1
10
95.637100
20
286.724000
11
94.045900
21
286.604779
0
LINE
8
Layer 1
10
94.045900
20
286.605000
11
92.516080
21
286.256862
0
LINE
8
Layer 1
10
92.516100
20
286.257000
11
91.068040
21
285.694047
0
LINE
8
Layer 1
10
91.068000
20
285.694000
11
89.723390
21
284.930440
0
LINE
8
Layer 1
10
89.723400
20
284.930000
11
88.503410
21
283.980015
0
LINE
8
Layer 1
10
88.503400
20
283.980000
11
87.429190
21
282.857720
0
LINE
8
Layer 1
10
87.429200
20
282.858000
11
86.522209
21
281.577630
0
LINE
8
Layer 1
10
86.522200
20
281.578000
11
85.803063
21
280.153720
0
LINE
8
Layer 1
10
85.803100
20
280.153000
11
85.304361
21
278.637470
0
LINE
8
Layer 1
10
85.304300
20
278.638000
11
85.040511
21
277.091170
0
LINE
8
Layer 1
10
85.040500
20
277.091000
11
85.006633
21
275.537870
0
LINE
8
Layer 1
10
85.006700
20
275.538000
11
85.197464
21
274.003600
0
LINE
8
Layer 1
10
85.197400
20
274.003000
11
85.608297
21
272.512340
0
LINE
8
Layer 1
10
85.608300
20
272.513000
11
86.234039
21
271.091100
0
LINE
8
Layer 1
10
86.234100
20
271.091000
11
87.069918
21
269.762930
0
LINE
8
Layer 1
10
87.069900
20
269.763000
11
88.110500
21
268.553590
0
LINE
8
Layer 1
10
88.110500
20
268.553000
11
89.319910
21
267.512130
0
LINE
8
Layer 1
10
89.319900
20
267.513000
11
90.647840
21
266.677447
0
LINE
8
Layer 1
10
90.647800
20
266.677000
11
92.069930
21
266.050997
0
LINE
8
Layer 1
10
92.070000
20
266.051000
11
93.560660
21
265.640367
0
LINE
8
Layer 1
10
93.560600
20
265.640000
11
95.094920
21
265.448971
0
LINE
8
Layer 1
10
95.095000
20
265.449000
11
96.648100
21
265.483131
0
LINE
8
Layer 1
10
96.648100
20
265.483000
11
98.194850
21
265.746789
0
LINE
8
Layer 1
10
98.194800
20
265.747000
11
99.710330
21
266.245739
0
LINE
8
Layer 1
10
99.710300
20
266.246000
11
101.134810
21
266.965137
0
LINE
8
Layer 1
10
101.135000
20
266.965000
11
102.415320
21
267.872255
0
LINE
8
Layer 1
10
102.415000
20
267.873000
11
103.537100
21
268.947210
0
LINE
8
Layer 1
10
103.537000
20
268.947000
11
104.487118
21
270.166730
0
LINE
8
Layer 1
10
104.487000
20
270.167000
11
105.250587
21
271.511660
0
LINE
8
Layer 1
10
105.251000
20
271.511000
11
105.813768
21
272.958900
0
LINE
8
Layer 1
10
105.814000
20
272.959000
11
106.162191
21
274.489080
0
LINE
8
Layer 1
10
106.162000
20
274.489000
11
106.281327
21
276.080020
0
LINE
8
Layer 1
10
106.281000
20
276.080000
11
106.074625
21
278.166260
0
LINE
8
Layer 1
10
106.074000
20
278.167000
11
105.470222
21
280.154070
0
LINE
8
Layer 1
10
105.471000
20
280.154000
11
104.492837
21
281.986030
0
LINE
8
Layer 1
10
104.492000
20
281.986000
11
103.162740
21
283.607150
0
LINE
8
Layer 1
10
103.164000
20
283.606000
11
101.542900
21
284.935660
0
LINE
8
Layer 1
10
101.543000
20
284.936000
11
99.711030
21
285.914216
0
LINE
8
Layer 1
10
99.710600
20
285.914000
11
97.723320
21
286.517752
0
LINE
8
Layer 1
10
97.723300
20
286.518000
11
95.637060
21
286.724375
0
LINE
8
Layer 1
10
95.637100
20
161.325000
11
94.045900
21
161.205673
0
LINE
8
Layer 1
10
94.045900
20
161.205000
11
92.516080
21
160.856809
0
LINE
8
Layer 1
10
92.516100
20
160.857000
11
91.068040
21
160.294232
0
LINE
8
Layer 1
10
91.068000
20
160.294000
11
89.723390
21
159.530413
0
LINE
8
Layer 1
10
89.723400
20
159.531000
11
88.503410
21
158.580882
0
LINE
8
Layer 1
10
88.503400
20
158.581000
11
87.429190
21
157.458900
0
LINE
8
Layer 1
10
87.429200
20
157.458000
11
86.522209
21
156.177420
0
LINE
8
Layer 1
10
86.522200
20
156.178000
11
85.803063
21
154.753750
0
LINE
8
Layer 1
10
85.803100
20
154.754000
11
85.304361
21
153.238470
0
LINE
8
Layer 1
10
85.304300
20
153.238000
11
85.040511
21
151.690980
0
LINE
8
Layer 1
10
85.040500
20
151.691000
11
85.006633
21
150.137900
0
LINE
8
Layer 1
10
85.006700
20
150.138000
11
85.197464
21
148.603680
0
LINE
8
Layer 1
10
85.197400
20
148.604000
11
85.608297
21
147.113340
0
LINE
8
Layer 1
10
85.608300
20
147.113000
11
86.234039
21
145.691130
0
LINE
8
Layer 1
10
86.234100
20
145.691000
11
87.069918
21
144.362790
0
LINE
8
Layer 1
10
87.069900
20
144.363000
11
88.110500
21
143.153590
0
LINE
8
Layer 1
10
88.110500
20
143.154000
11
89.319910
21
142.113400
0
LINE
8
Layer 1
10
89.319900
20
142.113000
11
90.647840
21
141.277182
0
LINE
8
Layer 1
10
90.647800
20
141.277000
11
92.069930
21
140.651261
0
LINE
8
Layer 1
10
92.070000
20
140.651000
11
93.560660
21
140.240103
0
LINE
8
Layer 1
10
93.560600
20
140.240000
11
95.094920
21
140.048971
0
LINE
8
Layer 1
10
95.095000
20
140.049000
11
96.648100
21
140.083131
0
LINE
8
Layer 1
10
96.648100
20
140.084000
11
98.194850
21
140.347789
0
LINE
8
Layer 1
10
98.194800
20
140.347000
11
99.710330
21
140.845739
0
LINE
8
Layer 1
10
99.710300
20
140.847000
11
101.134810
21
141.565872
0
LINE
8
Layer 1
10
101.135000
20
141.565000
11
102.415320
21
142.472255
0
LINE
8
Layer 1
10
102.415000
20
142.473000
11
103.537100
21
143.547210
0
LINE
8
Layer 1
10
103.537000
20
143.547000
11
104.487118
21
144.766990
0
LINE
8
Layer 1
10
104.487000
20
144.767000
11
105.250587
21
146.111350
0
LINE
8
Layer 1
10
105.251000
20
146.111000
11
105.813768
21
147.559060
0
LINE
8
Layer 1
10
105.814000
20
147.559000
11
106.162191
21
149.089080
0
LINE
8
Layer 1
10
106.162000
20
149.089000
11
106.281327
21
150.679940
0
LINE
8
Layer 1
10
106.281000
20
150.681000
11
106.074625
21
152.767240
0
LINE
8
Layer 1
10
106.074000
20
152.767000
11
105.470222
21
154.754020
0
LINE
8
Layer 1
10
105.471000
20
154.754000
11
104.492837
21
156.585970
0
LINE
8
Layer 1
10
104.492000
20
156.586000
11
103.162740
21
158.207100
0
LINE
8
Layer 1
10
103.164000
20
158.208000
11
101.542900
21
159.537260
0
LINE
8
Layer 1
10
101.543000
20
159.537000
11
99.711030
21
160.515163
0
LINE
8
Layer 1
10
99.710600
20
160.515000
11
97.723580
21
161.118778
0
LINE
8
Layer 1
10
97.723600
20
161.119000
11
95.637100
21
161.325375
0
LINE
8
Layer 1
10
25.233900
20
301.182000
11
22.667390
21
301.052381
0
LINE
8
Layer 1
10
22.667400
20
301.053000
11
20.175030
21
300.672609
0
LINE
8
Layer 1
10
20.175100
20
300.672000
11
17.769480
21
300.053431
0
LINE
8
Layer 1
10
17.769400
20
300.054000
11
15.463160
21
299.209874
0
LINE
8
Layer 1
10
15.463200
20
299.210000
11
13.268960
21
298.152940
0
LINE
8
Layer 1
10
13.269000
20
298.153000
11
11.199350
21
296.895620
0
LINE
8
Layer 1
10
11.199300
20
296.895000
11
9.266890
21
295.449920
0
LINE
8
Layer 1
10
9.266910
20
295.450000
11
7.484330
21
293.829860
0
LINE
8
Layer 1
10
7.484330
20
293.830000
11
5.864210
21
292.047400
0
LINE
8
Layer 1
10
5.864210
20
292.047000
11
4.419190
21
290.114540
0
LINE
8
Layer 1
10
4.419190
20
290.115000
11
3.161840
21
288.045350
0
LINE
8
Layer 1
10
3.161840
20
288.045000
11
2.104820
21
285.850730
0
LINE
8
Layer 1
10
2.104820
20
285.851000
11
1.260726
21
283.544760
0
LINE
8
Layer 1
10
1.260720
20
283.545000
11
0.642173
21
281.139410
0
LINE
8
Layer 1
10
0.642174
20
281.139000
11
0.261791
21
278.646650
0
LINE
8
Layer 1
10
0.261791
20
278.647000
11
0.132193
21
276.080540
0
LINE
8
Layer 1
10
0.132193
20
276.080000
11
0.424102
21
272.289160
0
LINE
8
Layer 1
10
0.424102
20
272.290000
11
1.259642
21
268.597820
0
LINE
8
Layer 1
10
1.259640
20
268.597000
11
2.601030
21
265.055290
0
LINE
8
Layer 1
10
2.601030
20
265.056000
11
4.410490
21
261.716700
0
LINE
8
Layer 1
10
4.410490
20
261.716000
11
4.758152
21
261.137886
0
LINE
8
Layer 1
10
4.758150
20
261.138000
11
5.674771
21
259.302590
0
LINE
8
Layer 1
10
5.674770
20
259.303000
11
6.970670
21
256.057890
0
LINE
8
Layer 1
10
6.970670
20
256.058000
11
8.456220
21
251.251590
0
LINE
8
Layer 1
10
8.456230
20
251.251000
11
9.941760
21
244.730620
0
LINE
8
Layer 1
10
9.941750
20
244.731000
11
10.625274
21
240.780510
0
LINE
8
Layer 1
10
10.625300
20
240.780000
11
11.237677
21
236.344270
0
LINE
8
Layer 1
10
11.237700
20
236.345000
11
11.755277
21
231.404970
0
LINE
8
Layer 1
10
11.755200
20
231.405000
11
12.154244
21
225.941100
0
LINE
8
Layer 1
10
12.154300
20
225.941000
11
12.411104
21
219.934970
0
LINE
8
Layer 1
10
12.411100
20
219.935000
11
12.501984
21
213.367260
0
LINE
8
Layer 1
10
12.501900
20
213.366000
11
12.408820
21
206.799580
0
LINE
8
Layer 1
10
12.408900
20
206.800000
11
12.145852
21
200.797140
0
LINE
8
Layer 1
10
12.145800
20
200.797000
11
11.737046
21
195.338390
0
LINE
8
Layer 1
10
11.737100
20
195.339000
11
11.206929
21
190.405590
0
LINE
8
Layer 1
10
11.206900
20
190.405000
11
10.579627
21
185.977200
0
LINE
8
Layer 1
10
10.579600
20
185.977000
11
9.879460
21
182.035510
0
LINE
8
Layer 1
10
9.879470
20
182.036000
11
8.357770
21
175.535200
0
LINE
8
Layer 1
10
8.357770
20
175.535000
11
6.836070
21
170.747640
0
LINE
8
Layer 1
10
6.836080
20
170.748000
11
5.508640
21
167.519820
0
LINE
8
Layer 1
10
5.508640
20
167.520000
11
4.569741
21
165.696490
0
LINE
8
Layer 1
10
4.569740
20
165.696000
11
4.213585
21
165.122384
0
LINE
8
Layer 1
10
4.735530
20
165.122000
11
2.757820
21
161.811010
0
LINE
8
Layer 1
10
2.757820
20
161.811000
11
1.317630
21
158.257120
0
LINE
8
Layer 1
10
1.317630
20
158.258000
11
0.435542
21
154.526060
0
LINE
8
Layer 1
10
0.435540
20
154.526000
11
0.132193
21
150.681080
0
LINE
8
Layer 1
10
0.132193
20
150.681000
11
0.212965
21
148.656150
0
LINE
8
Layer 1
10
0.212965
20
148.656000
11
0.451084
21
146.675860
0
LINE
8
Layer 1
10
0.451084
20
146.676000
11
0.840256
21
144.746400
0
LINE
8
Layer 1
10
0.840257
20
144.746000
11
1.374191
21
142.873010
0
LINE
8
Layer 1
10
1.374190
20
142.873000
11
2.851170
21
139.320970
0
LINE
8
Layer 1
10
2.851170
20
139.321000
11
4.831650
21
136.067950
0
LINE
8
Layer 1
10
4.831650
20
136.067000
11
5.577721
21
134.679530
0
LINE
8
Layer 1
10
5.577720
20
134.680000
11
6.674100
21
132.196360
0
LINE
8
Layer 1
10
6.674100
20
132.196000
11
7.982200
21
128.501360
0
LINE
8
Layer 1
10
7.982200
20
128.502000
11
9.363320
21
123.481270
0
LINE
8
Layer 1
10
9.363320
20
123.481000
11
10.678850
21
117.019620
0
LINE
8
Layer 1
10
10.678900
20
117.020000
11
11.790230
21
109.002870
0
LINE
8
Layer 1
10
11.790200
20
109.002000
11
12.558655
21
99.314030
0
LINE
8
Layer 1
10
12.558600
20
99.314500
11
12.770928
21
93.808260
0
LINE
8
Layer 1
10
12.771000
20
93.808300
11
12.845639
21
87.841160
0
LINE
8
Layer 1
10
12.845700
20
87.841400
11
12.758705
21
81.408330
0
LINE
8
Layer 1
10
12.758700
20
81.408300
11
12.512373
21
75.512600
0
LINE
8
Layer 1
10
12.512300
20
75.512600
11
12.128522
21
70.136270
0
LINE
8
Layer 1
10
12.128600
20
70.136300
11
11.629332
21
65.261360
0
LINE
8
Layer 1
10
11.629300
20
65.261300
11
10.371870
21
56.942280
0
LINE
8
Layer 1
10
10.371900
20
56.942300
11
8.915450
21
50.410540
0
LINE
8
Layer 1
10
8.915410
20
50.410600
11
7.435310
21
45.520580
0
LINE
8
Layer 1
10
7.435310
20
45.520500
11
6.106840
21
42.127220
0
LINE
8
Layer 1
10
6.106830
20
42.127300
11
5.105410
21
40.085250
0
LINE
8
Layer 1
10
5.105410
20
40.085200
11
4.606380
21
39.249118
0
LINE
8
Layer 1
10
4.213580
20
165.122000
11
4.735530
21
165.122000
0
LINE
8
Layer 1
10
4.557730
20
39.249100
11
4.650731
21
39.389064
0
LINE
8
Layer 1
10
4.650730
20
39.389400
11
4.913778
21
39.823316
0
LINE
8
Layer 1
10
4.913780
20
39.823300
11
5.101369
21
40.157204
0
LINE
8
Layer 1
10
5.101370
20
40.157200
11
5.227444
21
40.393208
0
LINE
8
Layer 1
10
5.227440
20
40.393500
11
4.059520
21
38.714190
0
LINE
8
Layer 1
10
4.059520
20
38.714100
11
3.036910
21
36.954360
0
LINE
8
Layer 1
10
3.036900
20
36.954400
11
2.162837
21
35.123490
0
LINE
8
Layer 1
10
2.162840
20
35.123500
11
1.440489
21
33.230940
0
LINE
8
Layer 1
10
1.440490
20
33.230900
11
0.873052
21
31.287540
0
LINE
8
Layer 1
10
0.873052
20
31.287600
11
0.463721
21
29.300580
0
LINE
8
Layer 1
10
0.463721
20
29.300500
11
0.215690
21
27.279090
0
LINE
8
Layer 1
10
0.215690
20
27.279100
11
0.132153
21
25.236520
0
LINE
8
Layer 1
10
0.132153
20
25.236600
11
0.261751
21
22.670140
0
LINE
8
Layer 1
10
0.261751
20
22.670100
11
0.642134
21
20.177730
0
LINE
8
Layer 1
10
0.642134
20
20.177700
11
1.260684
21
17.769990
0
LINE
8
Layer 1
10
1.260680
20
17.770000
11
2.104776
21
15.465480
0
LINE
8
Layer 1
10
2.104780
20
15.465500
11
3.161810
21
13.269460
0
LINE
8
Layer 1
10
3.161810
20
13.269500
11
4.419160
21
11.200460
0
LINE
8
Layer 1
10
4.419160
20
11.200400
11
5.864180
21
9.268940
0
LINE
8
Layer 1
10
5.864190
20
9.268970
11
7.484310
21
7.485680
0
LINE
8
Layer 1
10
7.484310
20
7.485680
11
9.266890
21
5.866430
0
LINE
8
Layer 1
10
9.266880
20
5.866430
11
11.199290
21
4.421810
0
LINE
8
Layer 1
10
11.199300
20
4.421810
11
13.268950
21
3.162390
0
LINE
8
Layer 1
10
13.268900
20
3.162390
11
15.463170
21
2.106700
0
LINE
8
Layer 1
10
15.463200
20
2.106700
11
17.769440
21
1.262680
0
LINE
8
Layer 1
10
17.769400
20
1.262680
11
20.175020
21
0.643556
0
LINE
8
Layer 1
10
20.175100
20
0.643560
11
22.667470
21
0.262560
0
LINE
8
Layer 1
10
22.667400
20
0.262561
11
25.233880
21
0.132915
0
LINE
8
Layer 1
10
25.233900
20
0.132915
11
27.800360
21
0.262561
0
LINE
8
Layer 1
10
27.800400
20
0.262561
11
30.292770
21
0.643561
0
LINE
8
Layer 1
10
30.292800
20
0.643560
11
32.698390
21
1.262684
0
LINE
8
Layer 1
10
32.698400
20
1.262680
11
35.004770
21
2.106700
0
LINE
8
Layer 1
10
35.004700
20
2.106700
11
37.198890
21
3.162390
0
LINE
8
Layer 1
10
37.198900
20
3.162390
11
39.268470
21
4.421810
0
LINE
8
Layer 1
10
39.268500
20
4.421810
11
41.201010
21
5.866430
0
LINE
8
Layer 1
10
41.201000
20
5.866430
11
42.983500
21
7.485680
0
LINE
8
Layer 1
10
42.983500
20
7.485680
11
44.603810
21
9.268970
0
LINE
8
Layer 1
10
44.603800
20
9.268970
11
46.048690
21
11.200430
0
LINE
8
Layer 1
10
46.048700
20
11.200400
11
47.306000
21
13.269440
0
LINE
8
Layer 1
10
47.306000
20
13.269500
11
48.363010
21
15.465540
0
LINE
8
Layer 1
10
48.363000
20
15.465500
11
49.207284
21
17.770020
0
LINE
8
Layer 1
10
49.207300
20
17.770000
11
49.825630
21
20.177710
0
LINE
8
Layer 1
10
49.825600
20
20.177700
11
50.206070
21
22.670070
0
LINE
8
Layer 1
10
50.206100
20
22.670100
11
50.335746
21
25.236560
0
LINE
8
Layer 1
10
50.335700
20
25.236600
11
50.252092
21
27.279180
0
LINE
8
Layer 1
10
50.252100
20
27.279100
11
50.004186
21
29.297870
0
LINE
8
Layer 1
10
50.004200
20
29.297900
11
49.595155
21
31.282270
0
LINE
8
Layer 1
10
49.595200
20
31.282300
11
49.028463
21
33.226460
0
LINE
8
Layer 1
10
49.028400
20
33.226400
11
48.306618
21
35.117900
0
LINE
8
Layer 1
10
48.306600
20
35.117900
11
47.433476
21
36.948020
0
LINE
8
Layer 1
10
47.433500
20
36.948100
11
46.411950
21
38.707050
0
LINE
8
Layer 1
10
46.412000
20
38.707000
11
45.245190
21
40.385510
0
LINE
8
Layer 1
10
45.245100
20
40.385500
11
45.366544
21
40.157165
0
LINE
8
Layer 1
10
45.366600
20
40.157200
11
45.554719
21
39.823825
0
LINE
8
Layer 1
10
45.554700
20
39.823800
11
45.817696
21
39.389884
0
LINE
8
Layer 1
10
45.817700
20
39.389900
11
45.910569
21
39.249671
0
LINE
8
Layer 1
10
4.606330
20
39.249100
11
4.557730
21
39.249100
0
LINE
8
Layer 1
10
45.861900
20
39.249700
11
45.362632
21
40.086311
0
LINE
8
Layer 1
10
45.362600
20
40.086300
11
44.360890
21
42.128880
0
LINE
8
Layer 1
10
44.360900
20
42.128900
11
43.032430
21
45.522440
0
LINE
8
Layer 1
10
43.032400
20
45.522400
11
41.552320
21
50.412420
0
LINE
8
Layer 1
10
41.552400
20
50.412400
11
40.095870
21
56.944160
0
LINE
8
Layer 1
10
40.095800
20
56.944200
11
38.838500
21
65.262950
0
LINE
8
Layer 1
10
38.838500
20
65.262900
11
38.339232
21
70.137580
0
LINE
8
Layer 1
10
38.339300
20
70.137600
11
37.955655
21
75.513660
0
LINE
8
Layer 1
10
37.955600
20
75.513700
11
37.709273
21
81.408870
0
LINE
8
Layer 1
10
37.709300
20
81.408800
11
37.622252
21
87.841340
0
LINE
8
Layer 1
10
37.622200
20
87.841400
11
37.696812
21
93.813830
0
LINE
8
Layer 1
10
37.696900
20
93.813800
11
37.909625
21
99.324270
0
LINE
8
Layer 1
10
37.909600
20
99.324300
11
38.679272
21
109.018360
0
LINE
8
Layer 1
10
38.679300
20
109.018000
11
39.792140
21
117.038570
0
LINE
8
Layer 1
10
39.792100
20
117.039000
11
41.109190
21
123.501440
0
LINE
8
Layer 1
10
41.109200
20
123.501000
11
42.491650
21
128.520400
0
LINE
8
Layer 1
10
42.491600
20
128.521000
11
43.800230
21
132.212460
0
LINE
8
Layer 1
10
43.800300
20
132.212000
11
44.895940
21
134.691140
0
LINE
8
Layer 1
10
44.895900
20
134.691000
11
45.639907
21
136.072650
0
LINE
8
Layer 1
10
45.639900
20
136.074000
11
47.618720
21
139.326250
0
LINE
8
Layer 1
10
47.618700
20
139.326000
11
49.094540
21
142.876700
0
LINE
8
Layer 1
10
49.094600
20
142.877000
11
49.628264
21
144.749190
0
LINE
8
Layer 1
10
49.628200
20
144.749000
11
50.016872
21
146.677810
0
LINE
8
Layer 1
10
50.016900
20
146.678000
11
50.255025
21
148.657350
0
LINE
8
Layer 1
10
50.255000
20
148.657000
11
50.335698
21
150.681060
0
LINE
8
Layer 1
10
50.335700
20
150.681000
11
50.260029
21
152.626480
0
LINE
8
Layer 1
10
50.260000
20
152.626000
11
50.035369
21
154.551110
0
LINE
8
Layer 1
10
50.035400
20
154.551000
11
49.148782
21
158.307020
0
LINE
8
Layer 1
10
49.148800
20
158.307000
11
47.697030
21
161.882840
0
LINE
8
Layer 1
10
47.697000
20
161.883000
11
46.765668
21
163.582420
0
LINE
8
Layer 1
10
46.765700
20
163.583000
11
45.700750
21
165.213100
0
LINE
8
Layer 1
10
45.910600
20
39.249700
11
45.861900
21
39.249700
0
LINE
8
Layer 1
10
45.507100
20
165.213000
11
44.978463
21
166.105174
0
LINE
8
Layer 1
10
44.978400
20
166.105000
11
43.963990
21
168.187270
0
LINE
8
Layer 1
10
43.964000
20
168.187000
11
42.635530
21
171.596420
0
LINE
8
Layer 1
10
42.635600
20
171.596000
11
41.164250
21
176.470150
0
LINE
8
Layer 1
10
41.164200
20
176.471000
11
39.721430
21
182.947460
0
LINE
8
Layer 1
10
39.721400
20
182.947000
11
38.478390
21
191.163630
0
LINE
8
Layer 1
10
38.478400
20
191.164000
11
37.985746
21
195.967770
0
LINE
8
Layer 1
10
37.985800
20
195.967000
11
37.607182
21
201.257070
0
LINE
8
Layer 1
10
37.607200
20
201.258000
11
37.364313
21
207.052100
0
LINE
8
Layer 1
10
37.364300
20
207.052000
11
37.278575
21
213.366800
0
LINE
8
Layer 1
10
37.278500
20
213.366000
11
37.371633
21
219.932420
0
LINE
8
Layer 1
10
37.371700
20
219.933000
11
37.634696
21
225.935860
0
LINE
8
Layer 1
10
37.634700
20
225.936000
11
38.043481
21
231.394350
0
LINE
8
Layer 1
10
38.043500
20
231.394000
11
38.573724
21
236.327680
0
LINE
8
Layer 1
10
38.573700
20
236.328000
11
39.200762
21
240.755530
0
LINE
8
Layer 1
10
39.200700
20
240.755000
11
39.900787
21
244.696490
0
LINE
8
Layer 1
10
39.900800
20
244.697000
11
41.422420
21
251.197800
0
LINE
8
Layer 1
10
41.422400
20
251.198000
11
42.944020
21
255.985360
0
LINE
8
Layer 1
10
42.944100
20
255.985000
11
44.271510
21
259.212910
0
LINE
8
Layer 1
10
44.271500
20
259.213000
11
45.210240
21
261.036510
0
LINE
8
Layer 1
10
45.210200
20
261.036000
11
45.566329
21
261.609616
0
LINE
8
Layer 1
10
45.700800
20
165.213000
11
45.507100
21
165.213000
0
LINE
8
Layer 1
10
45.860600
20
261.821000
11
47.783850
21
265.099180
0
LINE
8
Layer 1
10
47.783800
20
265.100000
11
49.183710
21
268.610220
0
LINE
8
Layer 1
10
49.183700
20
268.610000
11
50.040949
21
272.290960
0
LINE
8
Layer 1
10
50.041000
20
272.291000
11
50.335745
21
276.080230
0
LINE
8
Layer 1
10
50.335700
20
276.080000
11
50.206054
21
278.646460
0
LINE
8
Layer 1
10
50.206100
20
278.647000
11
49.825630
21
281.139350
0
LINE
8
Layer 1
10
49.825600
20
281.139000
11
49.207270
21
283.544590
0
LINE
8
Layer 1
10
49.207300
20
283.545000
11
48.363016
21
285.851240
0
LINE
8
Layer 1
10
48.363000
20
285.851000
11
47.305990
21
288.045270
0
LINE
8
Layer 1
10
47.306000
20
288.045000
11
46.048700
21
290.114650
0
LINE
8
Layer 1
10
46.048700
20
290.115000
11
44.603810
21
292.047460
0
LINE
8
Layer 1
10
44.603800
20
292.047000
11
42.983490
21
293.829600
0
LINE
8
Layer 1
10
42.983500
20
293.830000
11
41.201000
21
295.450140
0
LINE
8
Layer 1
10
41.201000
20
295.450000
11
39.268490
21
296.895080
0
LINE
8
Layer 1
10
39.268500
20
296.895000
11
37.198930
21
298.152380
0
LINE
8
Layer 1
10
37.198900
20
298.153000
11
35.004710
21
299.210060
0
LINE
8
Layer 1
10
35.004700
20
299.210000
11
32.698330
21
300.054126
0
LINE
8
Layer 1
10
32.698400
20
300.054000
11
30.292810
21
300.672569
0
LINE
8
Layer 1
10
30.292800
20
300.672000
11
27.800430
21
301.052391
0
LINE
8
Layer 1
10
27.800400
20
301.053000
11
25.233940
21
301.182619
0
LINE
8
Layer 1
10
45.566600
20
261.611000
11
45.860552
21
261.822137
0
LINE
8
Layer 1
10
35.878100
20
276.080000
11
35.661936
21
273.934840
0
LINE
8
Layer 1
10
35.661900
20
273.935000
11
35.041717
21
271.937000
0
LINE
8
Layer 1
10
35.041800
20
271.937000
11
34.060197
21
270.128810
0
LINE
8
Layer 1
10
34.060200
20
270.129000
11
32.760570
21
268.553940
0
LINE
8
Layer 1
10
32.760500
20
268.554000
11
31.185170
21
267.254100
0
LINE
8
Layer 1
10
31.185200
20
267.254000
11
29.377300
21
266.272662
0
LINE
8
Layer 1
10
29.377300
20
266.273000
11
27.379170
21
265.652817
0
LINE
8
Layer 1
10
27.379200
20
265.653000
11
25.234070
21
265.436836
0
LINE
8
Layer 1
10
25.234000
20
265.436000
11
23.088840
21
265.652164
0
LINE
8
Layer 1
10
23.088900
20
265.653000
11
21.090880
21
266.273183
0
LINE
8
Layer 1
10
21.090900
20
266.273000
11
19.282850
21
267.254603
0
LINE
8
Layer 1
10
19.282800
20
267.254000
11
17.707530
21
268.553630
0
LINE
8
Layer 1
10
17.707500
20
268.554000
11
16.407760
21
270.129330
0
LINE
8
Layer 1
10
16.407800
20
270.129000
11
15.426409
21
271.937030
0
LINE
8
Layer 1
10
15.426400
20
271.937000
11
14.806191
21
273.935000
0
LINE
8
Layer 1
10
14.806200
20
273.935000
11
14.589956
21
276.080160
0
LINE
8
Layer 1
10
14.589900
20
276.080000
11
14.796301
21
278.166260
0
LINE
8
Layer 1
10
14.796300
20
278.167000
11
15.400131
21
280.154070
0
LINE
8
Layer 1
10
15.400200
20
280.154000
11
16.378310
21
281.986030
0
LINE
8
Layer 1
10
16.378300
20
281.986000
11
17.707540
21
283.607150
0
LINE
8
Layer 1
10
17.707500
20
283.606000
11
19.328650
21
284.935660
0
LINE
8
Layer 1
10
19.328700
20
284.936000
11
21.160730
21
285.914216
0
LINE
8
Layer 1
10
21.160700
20
285.914000
11
23.147770
21
286.517752
0
LINE
8
Layer 1
10
23.147800
20
286.518000
11
25.234060
21
286.724375
0
LINE
8
Layer 1
10
25.234000
20
286.724000
11
27.320130
21
286.517572
0
LINE
8
Layer 1
10
27.320200
20
286.518000
11
29.307480
21
285.914195
0
LINE
8
Layer 1
10
29.307500
20
285.914000
11
31.139470
21
284.935890
0
LINE
8
Layer 1
10
31.139400
20
284.936000
11
32.760500
21
283.606760
0
LINE
8
Layer 1
10
32.760500
20
283.606000
11
34.089760
21
281.984850
0
LINE
8
Layer 1
10
34.089800
20
281.985000
11
35.067963
21
280.152950
0
LINE
8
Layer 1
10
35.068000
20
280.153000
11
35.671778
21
278.165930
0
LINE
8
Layer 1
10
35.671700
20
278.166000
11
35.878075
21
276.079740
0
LINE
8
Layer 1
10
35.878100
20
25.281500
11
35.661936
21
23.135730
0
LINE
8
Layer 1
10
35.661900
20
23.135800
11
35.041717
21
21.138200
0
LINE
8
Layer 1
10
35.041800
20
21.138200
11
34.060197
21
19.328450
0
LINE
8
Layer 1
10
34.060200
20
19.328400
11
32.760570
21
17.754130
0
LINE
8
Layer 1
10
32.760500
20
17.754100
11
31.185170
21
16.455000
0
LINE
8
Layer 1
10
31.185200
20
16.455000
11
29.377300
21
15.473397
0
LINE
8
Layer 1
10
29.377300
20
15.473400
11
27.379170
21
14.851630
0
LINE
8
Layer 1
10
27.379200
20
14.851700
11
25.234070
21
14.637388
0
LINE
8
Layer 1
10
25.234000
20
14.637400
11
23.088840
21
14.851712
0
LINE
8
Layer 1
10
23.088900
20
14.851700
11
21.090880
21
15.473470
0
LINE
8
Layer 1
10
21.090900
20
15.473400
11
19.282850
21
16.455003
0
LINE
8
Layer 1
10
19.282800
20
16.455000
11
17.707530
21
17.754100
0
LINE
8
Layer 1
10
17.707500
20
17.754100
11
16.407760
21
19.328370
0
LINE
8
Layer 1
10
16.407800
20
19.328400
11
15.426409
21
21.138150
0
LINE
8
Layer 1
10
15.426400
20
21.138200
11
14.806191
21
23.135800
0
LINE
8
Layer 1
10
14.806200
20
23.135800
11
14.589956
21
25.281570
0
LINE
8
Layer 1
10
14.589900
20
25.281500
11
14.806144
21
27.424620
0
LINE
8
Layer 1
10
14.806200
20
27.424700
11
15.426409
21
29.424950
0
LINE
8
Layer 1
10
15.426400
20
29.424900
11
16.407791
21
31.232000
0
LINE
8
Layer 1
10
16.407800
20
31.232000
11
17.707540
21
32.807330
0
LINE
8
Layer 1
10
17.707500
20
32.807300
11
19.282800
21
34.106930
0
LINE
8
Layer 1
10
19.282800
20
34.107000
11
21.090850
21
35.088338
0
LINE
8
Layer 1
10
21.090900
20
35.088300
11
23.088900
21
35.708483
0
LINE
8
Layer 1
10
23.088900
20
35.708500
11
25.234060
21
35.924929
0
LINE
8
Layer 1
10
25.234000
20
35.924900
11
27.379130
21
35.708471
0
LINE
8
Layer 1
10
27.379200
20
35.708500
11
29.377330
21
35.088317
0
LINE
8
Layer 1
10
29.377300
20
35.088300
11
31.185200
21
34.106962
0
LINE
8
Layer 1
10
31.185200
20
34.107000
11
32.760530
21
32.807370
0
LINE
8
Layer 1
10
32.760500
20
32.807300
11
34.060130
21
31.231970
0
LINE
8
Layer 1
10
34.060200
20
31.232000
11
35.041803
21
29.424900
0
LINE
8
Layer 1
10
35.041800
20
29.424900
11
35.661983
21
27.424650
0
LINE
8
Layer 1
10
35.661900
20
27.424700
11
35.878064
21
25.281580
0
LINE
8
Layer 1
10
35.878100
20
150.681000
11
35.661936
21
148.535760
0
LINE
8
Layer 1
10
35.661900
20
148.535000
11
35.041717
21
146.536870
0
LINE
8
Layer 1
10
35.041800
20
146.537000
11
34.060197
21
144.729100
0
LINE
8
Layer 1
10
34.060200
20
144.729000
11
32.760570
21
143.153670
0
LINE
8
Layer 1
10
32.760500
20
143.154000
11
31.185170
21
141.854100
0
LINE
8
Layer 1
10
31.185200
20
141.854000
11
29.377300
21
140.872662
0
LINE
8
Layer 1
10
29.377300
20
140.873000
11
27.379170
21
140.252817
0
LINE
8
Layer 1
10
27.379200
20
140.253000
11
25.234070
21
140.036836
0
LINE
8
Layer 1
10
25.234000
20
140.036000
11
23.088840
21
140.252429
0
LINE
8
Layer 1
10
23.088900
20
140.253000
11
21.090880
21
140.873183
0
LINE
8
Layer 1
10
21.090900
20
140.873000
11
19.282850
21
141.854338
0
LINE
8
Layer 1
10
19.282800
20
141.854000
11
17.707530
21
143.153630
0
LINE
8
Layer 1
10
17.707500
20
143.154000
11
16.407760
21
144.729330
0
LINE
8
Layer 1
10
16.407800
20
144.729000
11
15.426409
21
146.537160
0
LINE
8
Layer 1
10
15.426400
20
146.538000
11
14.806191
21
148.535870
0
LINE
8
Layer 1
10
14.806200
20
148.535000
11
14.589956
21
150.680240
0
LINE
8
Layer 1
10
14.589900
20
150.681000
11
14.806144
21
152.825970
0
LINE
8
Layer 1
10
14.806200
20
152.826000
11
15.426409
21
154.824130
0
LINE
8
Layer 1
10
15.426400
20
154.824000
11
16.407791
21
156.631900
0
LINE
8
Layer 1
10
16.407800
20
156.632000
11
17.707540
21
158.207330
0
LINE
8
Layer 1
10
17.707500
20
158.207000
11
19.282800
21
159.506900
0
LINE
8
Layer 1
10
19.282800
20
159.507000
11
21.090850
21
160.488338
0
LINE
8
Layer 1
10
21.090900
20
160.488000
11
23.088900
21
161.108183
0
LINE
8
Layer 1
10
23.088900
20
161.108000
11
25.234060
21
161.324164
0
LINE
8
Layer 1
10
25.234000
20
161.325000
11
27.379130
21
161.108571
0
LINE
8
Layer 1
10
27.379200
20
161.108000
11
29.377330
21
160.487817
0
LINE
8
Layer 1
10
29.377300
20
160.488000
11
31.185200
21
159.506662
0
LINE
8
Layer 1
10
31.185200
20
159.507000
11
32.760530
21
158.207370
0
LINE
8
Layer 1
10
32.760500
20
158.207000
11
34.060130
21
156.631670
0
LINE
8
Layer 1
10
34.060200
20
156.632000
11
35.041803
21
154.823840
0
LINE
8
Layer 1
10
35.041800
20
154.823000
11
35.661983
21
152.825130
0
LINE
8
Layer 1
10
35.661900
20
152.826000
11
35.878064
21
150.680760
 0 
ENDSEC
 0 
EOF